<svg width="100" height="100" viewBox="0 0 100 100" fill="none" xmlns="http://www.w3.org/2000/svg">
<g clip-path="url(#clip0)">
<path d="M45.087 11.319C46.7164 11.1099 48.3573 11.0033 50 11C52.033 11 54.029 11.156 55.979 11.456L50.5 0L45.087 11.319ZM0 49.5L11.318 54.913C11.1092 53.2836 11.003 51.6427 11 50C11 47.967 11.156 45.97 11.456 44.021L0 49.5ZM19.082 26.24C21.3037 23.3509 23.9176 20.7859 26.848 18.619L15.145 14.643L19.082 26.24V26.24ZM81.186 26.58L85.856 14.643L74.01 19.279C76.7102 21.3892 79.1227 23.8437 81.186 26.58V26.58ZM74.053 80.688L84.856 84.357L81.155 73.46C79.1093 76.1655 76.7221 78.595 74.053 80.688V80.688ZM19.082 73.76L15.144 85.357L26.013 80.743C23.4199 78.7141 21.0914 76.3682 19.082 73.76V73.76ZM45.087 88.681L50.5 100L55.979 88.544C54.029 88.844 52.033 89 50 89C48.3573 88.9967 46.7164 88.8901 45.087 88.681V88.681Z" fill="#CAA40B"/>
<path d="M45.087 11.319C46.7164 11.1099 48.3573 11.0033 50 11C52.033 11 54.029 11.156 55.979 11.456L50.5 0L45.087 11.319ZM0 49.5L11.318 54.913C11.1092 53.2836 11.003 51.6427 11 50C11 47.967 11.156 45.97 11.456 44.021L0 49.5ZM19.082 26.24C21.3037 23.3509 23.9176 20.7859 26.848 18.619L15.145 14.643L19.082 26.24V26.24ZM81.186 26.58L85.856 14.643L74.01 19.279C76.7102 21.3892 79.1227 23.8437 81.186 26.58V26.58ZM74.053 80.688L84.856 84.357L81.155 73.46C79.1093 76.1655 76.7221 78.595 74.053 80.688V80.688ZM19.082 73.76L15.144 85.357L26.013 80.743C23.4199 78.7141 21.0914 76.3682 19.082 73.76V73.76ZM45.087 88.681L50.5 100L55.979 88.544C54.029 88.844 52.033 89 50 89C48.3573 88.9967 46.7164 88.8901 45.087 88.681V88.681Z" fill="#CAA40B"/>
<path d="M33.104 7.324L32.666 15.063C34.7471 14.029 36.9172 13.1849 39.15 12.541L33.104 7.324V7.324ZM13.039 37.559C13.7321 35.4905 14.5988 33.4844 15.63 31.562L7.996 32.039L13.039 37.559V37.559ZM68.561 7.014L62.104 12.925C64.5396 13.7199 66.8905 14.7543 69.122 16.013L68.561 7.014V7.014ZM8.561 68.135L15.413 68.015C14.5352 66.3324 13.7818 64.5877 13.159 62.795L8.561 68.135ZM33.852 93.014L39.737 87.626C37.5508 87.0318 35.4209 86.2468 33.372 85.28L33.852 93.014V93.014ZM68.797 91.496L69.225 83.928C67.3094 85.0196 65.3041 85.9456 63.231 86.696L68.797 91.496Z" fill="#F1C411"/>
<path d="M33.104 7.324L32.666 15.063C34.7471 14.029 36.9172 13.1849 39.15 12.541L33.104 7.324V7.324ZM13.039 37.559C13.7321 35.4905 14.5988 33.4844 15.63 31.562L7.996 32.039L13.039 37.559V37.559ZM68.561 7.014L62.104 12.925C64.5396 13.7199 66.8905 14.7543 69.122 16.013L68.561 7.014V7.014ZM8.561 68.135L15.413 68.015C14.5352 66.3324 13.7818 64.5877 13.159 62.795L8.561 68.135ZM33.852 93.014L39.737 87.626C37.5508 87.0318 35.4209 86.2468 33.372 85.28L33.852 93.014V93.014ZM68.797 91.496L69.225 83.928C67.3094 85.0196 65.3041 85.9456 63.231 86.696L68.797 91.496Z" fill="#F1C411"/>
<path d="M50 14C69.882 14 86 30.117 86 50C86 69.882 69.882 86 50 86C30.117 86 14 69.882 14 50C14 30.117 30.117 14 50 14Z" fill="#F6D759"/>
<path d="M54 82C34.118 82 18 65.882 18 46C18 37.077 21.253 28.919 26.629 22.629C18.902 29.232 14 39.041 14 50C14 69.882 30.118 86 50 86C60.973 86 70.781 81.083 77.387 73.345C71.094 78.732 62.934 82 54 82Z" fill="#DDC14E"/>
<path d="M77.387 73.345C71.094 78.733 62.934 82 53.999 82C40.982 82 29.582 75.091 23.258 64.741L19.258 68.741C25.582 79.091 36.982 86 49.999 86C60.971 86 70.781 81.083 77.387 73.345Z" fill="#C5AE47"/>
<path d="M47 41L2 86H86V41H47Z" fill="#DCC050"/>
<path d="M95.584 49.709C96.166 48.079 96.5 46.33 96.5 44.5C96.5 35.939 89.561 29 81 29C74.477 29 68.904 33.034 66.618 38.74C64.1905 36.3401 60.9135 34.9959 57.5 35C50.32 35 44.5 40.82 44.5 48C44.5 51.062 45.564 53.872 47.338 56.094C43.473 56.658 40.5 59.978 40.5 64C40.5 66.1217 41.3429 68.1566 42.8431 69.6569C44.3434 71.1571 46.3783 72 48.5 72H86.5C93.68 72 99.5 66.18 99.5 59C99.5 55.357 97.998 52.069 95.584 49.709Z" fill="white"/>
<path d="M95.584 49.709C96.166 48.079 96.5 46.33 96.5 44.5C96.5 35.939 89.561 29 81 29C74.477 29 68.904 33.034 66.618 38.74C64.1905 36.3401 60.9135 34.9959 57.5 35C50.32 35 44.5 40.82 44.5 48C44.5 51.062 45.564 53.872 47.338 56.094C43.473 56.658 40.5 59.978 40.5 64C40.5 66.1217 41.3429 68.1566 42.8431 69.6569C44.3434 71.1571 46.3783 72 48.5 72H86.5C93.68 72 99.5 66.18 99.5 59C99.5 55.357 97.998 52.069 95.584 49.709Z" fill="white"/>
</g>
<defs>
<clipPath id="clip0">
<rect width="99.5" height="100" fill="white"/>
</clipPath>
</defs>
</svg>
